<svg xmlns="http://www.w3.org/2000/svg" viewBox="0 0 44.815 70.929" height="6em" width="auto"><path d="M32.063 27.784l1.136-1.48c.555-.793 1.136-2.114 1.453-2.8s1.295-1.718 1.586-1.982.45-.872.555-1.216.95-1.4 1.427-2.722c.476-1.295 1.4-4.968 1.4-4.968l.766-2.326c.026-.132.396-.396.53-.502.16-.106.264-.423.502-.9s.396-1.956.396-2.06c0-.08.185-.396.21-.53s.264-.925.344-1.057.714-.555.872-.687.66-.74.872-.978.264-.714-.08-.793-.502.396-.846.714-1.27.872-1.27.872l.344-.58c.08-.132.21-.423.45-.925s.317-1.374 0-1.4-.396.264-.53.476l-1.136 1.93.53-1.348c.132-.21.238-.846 0-.872-.238-.053-.502.132-.66.396L39.885 4s.053-.66.185-.925c.132-.29.185-.66.053-.74s-.238-.106-.555.344c-.317.423-.714 2.775-.74 3.092s-.185.66-.29.846-.344.45-.476.476-.106.317-.132.53.21 1.27.238 1.453-.502 1.823-.66 2.193-.766 1.533-1.4 2.696-1.242 1.612-1.956 2.748-1.136 2.458-1.242 2.88c-.106.396-.344.925-.766 1.533L30.9 23.106c-.132.29-.634.978-.793 1.057s-.608.344-1.797 1.1-1.638 2.8-1.797 3.04-.238.344-.344.396-.793.74-.925.74a.44.44 0 0 1-.344-.211c-.053-.106.396-.58.58-.925s.106-1.27 0-1.427c-.106-.185-.476-.634-.476-.714a.51.51 0 0 0-.079-.264c-.053-.08-.264-.264-.29-.396-.053-.132-.08-.264-.026-.37s.026-.238-.08-.344c-.08-.08-.793-.132-.925-.238l-.95-.74c-.317-.21-1.27-.29-1.533-.29s-1.612.08-2.51 1.004-1.665 1.797-1.295 3.436c.37 1.665 1.93 2.14 2.246 2.246.317.132.45.29.793.793s.106 1.956 0 2.167-.608.74-.766.925-.58.264-1.163.74-1.348 2.193-1.295 3.066.687 2.06.687 2.193-.37 2.035-.396 3.013.21 3.013.21 3.013l-.793.66-1.453 1.4s-.555-.9-.978-1.27a3.96 3.96 0 0 0-4.968.159c-2.3 1.85-1.374 4.65-1.374 4.65s-.687.793-1.03 1.057-1.163.45-1.506.476-.925.238-2.06 1.084-2.114 2.273-2.114 3.91S2.49 60.2 3.23 60.183c.74 0 3.356-1.427 4.096-1.903.766-.476 2.14-.555 2.51-.58s1.665-.185 2.14-.476c.476-.264.793-1.163.872-1.32.053-.16.132-.238.396-.344.264-.132 2.43.106 2.986.16s3.54.502 3.91.66 2.3.476 4.043.45 3.462-.344 3.647-.423.396-.08.58.106 1.136 2.06 1.19 2.352c.08.29 1.004 2.696 1.453 3.118.45.396-2.22.502-2.775.555s-3.04.132-3.277.026c-.21-.106-.793-.846-.846-1.004-.08-.16-.344-.608-.793-.978s-1.004-1.242-1.48-1.374-1.797 1.665-2.722 2.854l-2.775 3.78c-.238.396-1.27 2.378-1.348 3.04s.555 1.057 1.03 1.136.9-.502 1.638-1.216 1.348-.9 1.506-1.004l.925-.608.766-.344s.053-.026.21-.08.82-.502.82-.502.053 0 .21.053 1.374.714 1.453.74.053.026.238.08c.21.053.21.026.396 0s.396-.978.396-1.057.396-.132.766-.132l1.85.053c.264-.026.766-.264.978-.264s2.696.53 3.145.555 2.828.344 3.066.45.872.872 1.03.925 1.876.264 2.14.132 1.638-.317 1.982-.238 1.27 1.03 1.4 1.004c.132-.053 1.48-1.03 1.56-1.163s.344-.344.714-1.32-.106-3.62-.344-4.228l-1.295-3.7c-.16-.45-.74-1.876-1.057-2.378l-1.48-2.484c-.132-.185-.45-1.03-.66-1.374s-1.19-1.374-1.216-1.533-.502-.925-.502-.925-.026-.793-.21-1.242-1.242-1.533-1.348-1.77c-.132-.238-.053-.978-.08-1.295s-.264-.53-.396-.66-.106-.45-.132-.714-.185-3.224-.53-4.308l-1.427-4.598c-.555-1.32-1.004-1.586-1.03-1.77l-.264-1.982c-.132-.66-.08-2.3-.053-2.51.053-.106.608-.53.82-.82zM23.42 43.27c-.21.16-.872.687-1.03 1.004-.16.29.132 1.1.238 1.27.106.132.026 1.136.026 1.665s.264 1.004.396 1.163.132 1.057.106 1.32c0 .264-.423.9-.423.9s-.317-.16-2.035-.185-5.048 1.533-5.048 1.533l3.277-2.696c.66-.714 1.32-.95 1.533-1.32s.053-1.586.185-2.14.344-.66.766-1.612c.423-.925.21-3.436.21-3.436l.687.58.687.476c.132.08.82.925.82.925s-.185.396-.396.555z" fill="#9dbac9" stroke="#26236f" stroke-width="1.064"/><path d="M31.7 27.333l1.156-1.512c.565-.8 1.156-2.16 1.48-2.862s1.318-1.755 1.614-2.025.457-.89.565-1.242.968-1.43 1.452-2.78c.484-1.323 1.425-5.076 1.425-5.076l.78-2.376c.027-.135.403-.405.538-.513.16-.108.27-.432.51-.918s.403-1.998.403-2.106c0-.08.188-.405.215-.54s.27-.945.35-1.08.726-.567.888-.702.672-.756.888-1 .27-.73-.08-.8-.51.405-.86.73-1.29.89-1.29.89l.35-.594c.08-.135.215-.432.457-.945s.323-1.404 0-1.43-.403.27-.538.486l-1.156 1.97.538-1.377c.134-.216.242-.864 0-.89-.242-.054-.51.135-.672.405L39.65 3.03s.054-.675.188-.945c.134-.297.188-.675.054-.756s-.242-.108-.565.35c-.323.432-.726 2.835-.753 3.16s-.188.675-.296.864-.35.46-.484.486-.108.324-.134.54.215 1.296.242 1.485-.51 1.863-.672 2.24-.78 1.566-1.425 2.754-1.264 1.647-2 2.808-1.156 2.51-1.264 2.943c-.108.405-.35.945-.78 1.566l-1.264 2.025c-.134.297-.645 1-.807 1.08s-.62.35-1.83 1.134-1.667 2.862-1.83 3.105-.242.35-.35.405-.807.756-.94.756-.296-.108-.35-.216.403-.594.592-.945.108-1.296 0-1.458c-.108-.19-.484-.648-.484-.73s-.027-.19-.08-.27-.27-.27-.296-.405c-.054-.135-.08-.27-.027-.378s.027-.243-.08-.35c-.08-.08-.807-.135-.94-.243l-.968-.756c-.323-.216-1.29-.297-1.56-.297s-1.64.08-2.555 1.026-1.694 1.836-1.318 3.5c.377 1.7 1.963 2.187 2.286 2.295.323.135.457.297.807.8s.108 1.998 0 2.214-.62.756-.78.945-.592.27-1.183.756-1.372 2.24-1.318 3.132.7 2.106.7 2.24-.377 2.08-.403 3.078.215 3.078.215 3.078l-.807.675-1.48 1.43s-.565-.918-.995-1.296a4.02 4.02 0 0 0-5.056.162c-2.34 1.9-1.4 4.752-1.4 4.752s-.7.8-1.05 1.08-1.183.46-1.533.486-.94.243-2.098 1.107S.438 56.792.438 58.466s1.156 1.998 1.9 1.97c.753 0 3.416-1.458 4.17-1.944.78-.486 2.178-.567 2.555-.594s1.694-.19 2.178-.486c.484-.27.807-1.188.888-1.35.054-.162.134-.243.403-.35.27-.135 2.474.108 3.04.162s3.604.513 3.98.675 2.34.486 4.115.46 3.523-.35 3.71-.432a.5.5 0 0 1 .592.108c.188.19 1.156 2.106 1.2 2.403.08.297 1.022 2.754 1.48 3.186.457.405-2.26.513-2.824.567s-3.093.135-3.335.027c-.215-.108-.807-.864-.86-1.026-.08-.162-.35-.62-.807-1s-1.022-1.27-1.506-1.404-1.83 1.7-2.77 2.916l-2.824 3.86c-.242.405-1.29 2.43-1.372 3.105s.565 1.08 1.05 1.16.914-.513 1.667-1.242 1.372-.918 1.533-1.026l.94-.62.78-.35s.054-.027.215-.08.834-.513.834-.513.054 0 .215.054 1.4.73 1.48.756.054.027.242.08c.215.054.215.027.403 0s.403-1 .403-1.08.403-.135.78-.135l1.883.054c.27-.027.78-.27.995-.27s2.743.54 3.2.567 2.878.35 3.12.46.888.89 1.05.945 1.9.27 2.178.135 1.667-.324 2.017-.243 1.29 1.053 1.425 1.026c.134-.054 1.506-1.053 1.587-1.188s.35-.35.726-1.35-.108-3.7-.35-4.32l-1.318-3.78c-.16-.46-.753-1.917-1.076-2.43L38.843 53.4c-.134-.19-.457-1.053-.672-1.404s-1.2-1.404-1.237-1.566-.51-.945-.51-.945-.027-.8-.215-1.27-1.264-1.566-1.372-1.81c-.134-.243-.054-1-.08-1.323s-.27-.54-.403-.675-.108-.46-.134-.73-.188-3.294-.538-4.4l-1.452-4.698c-.565-1.35-1.022-1.62-1.05-1.81l-.27-2.025c-.134-.675-.08-2.35-.054-2.565.054-.108.62-.54.834-.837zm-8.795 15.823c-.215.162-.888.702-1.05 1.026-.16.297.134 1.134.242 1.296.108.135.027 1.16.027 1.7s.27 1.026.403 1.188.134 1.08.108 1.35c0 .27-.43.918-.43.918s-.323-.162-2.07-.19-5.137 1.566-5.137 1.566l3.335-2.754c.672-.73 1.345-.972 1.56-1.35s.054-1.62.188-2.187.35-.675.78-1.647c.43-.945.215-3.5.215-3.5l.7.594.7.486c.134.08.834.945.834.945s-.188.405-.403.567z" fill="none" stroke="#37c8f6" stroke-width=".877"/></svg>