<?xml version="1.0" encoding="UTF-8" standalone="no"?>
<svg
   xmlns:dc="http://purl.org/dc/elements/1.1/"
   xmlns:cc="http://creativecommons.org/ns#"
   xmlns:rdf="http://www.w3.org/1999/02/22-rdf-syntax-ns#"
   xmlns:svg="http://www.w3.org/2000/svg"
   xmlns="http://www.w3.org/2000/svg"
   id="svg845"
   version="1.1"
   viewBox="0 0 399.68115 393.87112"
   height="393.87112mm"
   width="399.68115mm">
  <defs
     id="defs839" />
  <metadata
     id="metadata842">
    <rdf:RDF>
      <cc:Work
         rdf:about="">
        <dc:format>image/svg+xml</dc:format>
        <dc:type
           rdf:resource="http://purl.org/dc/dcmitype/StillImage" />
        <dc:title></dc:title>
      </cc:Work>
    </rdf:RDF>
  </metadata>
  <g
     transform="translate(219.03191,52.982581)"
     id="layer1">
    <rect
       y="-52.25"
       x="-218.29933"
       height="392.40598"
       width="398.216"
       id="rect1390"
       style="fill:#3c659c;fill-opacity:1;stroke:#9dbac9;stroke-width:1.46516216;stroke-miterlimit:4;stroke-dasharray:none;stroke-opacity:1" />
    <g
       transform="matrix(5.4949102,0,0,5.4949102,-145.35096,-51.7585)"
       id="g1422">
      <path
         style="fill:#9dbac9;stroke:#26236f;stroke-width:1.06400001"
         d="m 32.063,27.784 1.136,-1.48 c 0.555,-0.793 1.136,-2.114 1.453,-2.8 0.317,-0.686 1.295,-1.718 1.586,-1.982 0.291,-0.264 0.45,-0.872 0.555,-1.216 0.105,-0.344 0.95,-1.4 1.427,-2.722 0.476,-1.295 1.4,-4.968 1.4,-4.968 l 0.766,-2.326 c 0.026,-0.132 0.396,-0.396 0.53,-0.502 0.16,-0.106 0.264,-0.423 0.502,-0.9 0.238,-0.477 0.396,-1.956 0.396,-2.06 0,-0.08 0.185,-0.396 0.21,-0.53 0.025,-0.134 0.264,-0.925 0.344,-1.057 0.08,-0.132 0.714,-0.555 0.872,-0.687 0.158,-0.132 0.66,-0.74 0.872,-0.978 0.212,-0.238 0.264,-0.714 -0.08,-0.793 -0.344,-0.079 -0.502,0.396 -0.846,0.714 -0.344,0.318 -1.27,0.872 -1.27,0.872 l 0.344,-0.58 c 0.08,-0.132 0.21,-0.423 0.45,-0.925 0.24,-0.502 0.317,-1.374 0,-1.4 -0.317,-0.026 -0.396,0.264 -0.53,0.476 l -1.136,1.93 0.53,-1.348 c 0.132,-0.21 0.238,-0.846 0,-0.872 -0.238,-0.053 -0.502,0.132 -0.66,0.396 L 39.885,4 c 0,0 0.053,-0.66 0.185,-0.925 0.132,-0.29 0.185,-0.66 0.053,-0.74 -0.132,-0.08 -0.238,-0.106 -0.555,0.344 -0.317,0.423 -0.714,2.775 -0.74,3.092 -0.026,0.317 -0.185,0.66 -0.29,0.846 -0.105,0.186 -0.344,0.45 -0.476,0.476 -0.132,0.026 -0.106,0.317 -0.132,0.53 -0.026,0.213 0.21,1.27 0.238,1.453 0.028,0.183 -0.502,1.823 -0.66,2.193 -0.158,0.37 -0.766,1.533 -1.4,2.696 -0.634,1.163 -1.242,1.612 -1.956,2.748 -0.714,1.136 -1.136,2.458 -1.242,2.88 -0.106,0.396 -0.344,0.925 -0.766,1.533 l -1.244,1.98 c -0.132,0.29 -0.634,0.978 -0.793,1.057 -0.159,0.079 -0.608,0.344 -1.797,1.1 -1.189,0.756 -1.638,2.8 -1.797,3.04 -0.159,0.24 -0.238,0.344 -0.344,0.396 -0.106,0.052 -0.793,0.74 -0.925,0.74 A 0.44,0.44 0 0 1 24.9,29.228 c -0.053,-0.106 0.396,-0.58 0.58,-0.925 0.184,-0.345 0.106,-1.27 0,-1.427 -0.106,-0.185 -0.476,-0.634 -0.476,-0.714 a 0.51,0.51 0 0 0 -0.079,-0.264 c -0.053,-0.08 -0.264,-0.264 -0.29,-0.396 -0.053,-0.132 -0.08,-0.264 -0.026,-0.37 0.054,-0.106 0.026,-0.238 -0.08,-0.344 -0.08,-0.08 -0.793,-0.132 -0.925,-0.238 l -0.95,-0.74 c -0.317,-0.21 -1.27,-0.29 -1.533,-0.29 -0.263,0 -1.612,0.08 -2.51,1.004 -0.898,0.924 -1.665,1.797 -1.295,3.436 0.37,1.665 1.93,2.14 2.246,2.246 0.317,0.132 0.45,0.29 0.793,0.793 0.343,0.503 0.106,1.956 0,2.167 -0.106,0.211 -0.608,0.74 -0.766,0.925 -0.158,0.185 -0.58,0.264 -1.163,0.74 -0.583,0.476 -1.348,2.193 -1.295,3.066 0.053,0.873 0.687,2.06 0.687,2.193 0,0.133 -0.37,2.035 -0.396,3.013 -0.026,0.978 0.21,3.013 0.21,3.013 l -0.793,0.66 -1.453,1.4 c 0,0 -0.555,-0.9 -0.978,-1.27 A 3.96,3.96 0 0 0 9.44,47.065 c -2.3,1.85 -1.374,4.65 -1.374,4.65 0,0 -0.687,0.793 -1.03,1.057 -0.343,0.264 -1.163,0.45 -1.506,0.476 -0.343,0.026 -0.925,0.238 -2.06,1.084 -1.135,0.846 -2.114,2.273 -2.114,3.91 0,1.637 1.134,1.958 1.874,1.941 0.74,0 3.356,-1.427 4.096,-1.903 0.766,-0.476 2.14,-0.555 2.51,-0.58 0.37,-0.025 1.665,-0.185 2.14,-0.476 0.476,-0.264 0.793,-1.163 0.872,-1.32 0.053,-0.16 0.132,-0.238 0.396,-0.344 0.264,-0.132 2.43,0.106 2.986,0.16 0.556,0.054 3.54,0.502 3.91,0.66 0.37,0.158 2.3,0.476 4.043,0.45 1.743,-0.026 3.462,-0.344 3.647,-0.423 0.185,-0.079 0.396,-0.08 0.58,0.106 0.184,0.186 1.136,2.06 1.19,2.352 0.08,0.29 1.004,2.696 1.453,3.118 0.45,0.396 -2.22,0.502 -2.775,0.555 -0.555,0.053 -3.04,0.132 -3.277,0.026 -0.21,-0.106 -0.793,-0.846 -0.846,-1.004 -0.08,-0.16 -0.344,-0.608 -0.793,-0.978 -0.449,-0.37 -1.004,-1.242 -1.48,-1.374 -0.476,-0.132 -1.797,1.665 -2.722,2.854 l -2.775,3.78 c -0.238,0.396 -1.27,2.378 -1.348,3.04 -0.078,0.662 0.555,1.057 1.03,1.136 0.475,0.079 0.9,-0.502 1.638,-1.216 0.738,-0.714 1.348,-0.9 1.506,-1.004 l 0.925,-0.608 0.766,-0.344 c 0,0 0.053,-0.026 0.21,-0.08 0.157,-0.054 0.82,-0.502 0.82,-0.502 0,0 0.053,0 0.21,0.053 0.157,0.053 1.374,0.714 1.453,0.74 0.079,0.026 0.053,0.026 0.238,0.08 0.21,0.053 0.21,0.026 0.396,0 0.186,-0.026 0.396,-0.978 0.396,-1.057 0,-0.079 0.396,-0.132 0.766,-0.132 l 1.85,0.053 c 0.264,-0.026 0.766,-0.264 0.978,-0.264 0.212,0 2.696,0.53 3.145,0.555 0.449,0.025 2.828,0.344 3.066,0.45 0.238,0.106 0.872,0.872 1.03,0.925 0.158,0.053 1.876,0.264 2.14,0.132 0.264,-0.132 1.638,-0.317 1.982,-0.238 0.344,0.079 1.27,1.03 1.4,1.004 0.132,-0.053 1.48,-1.03 1.56,-1.163 0.08,-0.133 0.344,-0.344 0.714,-1.32 0.37,-0.976 -0.106,-3.62 -0.344,-4.228 l -1.295,-3.7 c -0.16,-0.45 -0.74,-1.876 -1.057,-2.378 l -1.48,-2.484 c -0.132,-0.185 -0.45,-1.03 -0.66,-1.374 -0.21,-0.344 -1.19,-1.374 -1.216,-1.533 -0.026,-0.159 -0.502,-0.925 -0.502,-0.925 0,0 -0.026,-0.793 -0.21,-1.242 -0.184,-0.449 -1.242,-1.533 -1.348,-1.77 -0.132,-0.238 -0.053,-0.978 -0.08,-1.295 -0.027,-0.317 -0.264,-0.53 -0.396,-0.66 -0.132,-0.13 -0.106,-0.45 -0.132,-0.714 -0.026,-0.264 -0.185,-3.224 -0.53,-4.308 l -1.427,-4.598 c -0.555,-1.32 -1.004,-1.586 -1.03,-1.77 l -0.264,-1.982 c -0.132,-0.66 -0.08,-2.3 -0.053,-2.51 0.053,-0.106 0.608,-0.53 0.82,-0.82 z M 23.42,43.27 c -0.21,0.16 -0.872,0.687 -1.03,1.004 -0.16,0.29 0.132,1.1 0.238,1.27 0.106,0.132 0.026,1.136 0.026,1.665 0,0.529 0.264,1.004 0.396,1.163 0.132,0.159 0.132,1.057 0.106,1.32 0,0.264 -0.423,0.9 -0.423,0.9 0,0 -0.317,-0.16 -2.035,-0.185 C 18.98,50.382 15.65,51.94 15.65,51.94 l 3.277,-2.696 c 0.66,-0.714 1.32,-0.95 1.533,-1.32 0.213,-0.37 0.053,-1.586 0.185,-2.14 0.132,-0.554 0.344,-0.66 0.766,-1.612 0.423,-0.925 0.21,-3.436 0.21,-3.436 l 0.687,0.58 0.687,0.476 c 0.132,0.08 0.82,0.925 0.82,0.925 0,0 -0.185,0.396 -0.396,0.555 z"
         id="path1408" />
      <path
         style="fill:none;stroke:#37c8f6;stroke-width:0.87699997"
         d="m 31.7,27.333 1.156,-1.512 c 0.565,-0.8 1.156,-2.16 1.48,-2.862 0.324,-0.702 1.318,-1.755 1.614,-2.025 0.296,-0.27 0.457,-0.89 0.565,-1.242 0.108,-0.352 0.968,-1.43 1.452,-2.78 0.484,-1.323 1.425,-5.076 1.425,-5.076 l 0.78,-2.376 c 0.027,-0.135 0.403,-0.405 0.538,-0.513 0.16,-0.108 0.27,-0.432 0.51,-0.918 0.24,-0.486 0.403,-1.998 0.403,-2.106 0,-0.08 0.188,-0.405 0.215,-0.54 0.027,-0.135 0.27,-0.945 0.35,-1.08 0.08,-0.135 0.726,-0.567 0.888,-0.702 0.162,-0.135 0.672,-0.756 0.888,-1 0.216,-0.244 0.27,-0.73 -0.08,-0.8 -0.35,-0.07 -0.51,0.405 -0.86,0.73 -0.35,0.325 -1.29,0.89 -1.29,0.89 l 0.35,-0.594 c 0.08,-0.135 0.215,-0.432 0.457,-0.945 0.242,-0.513 0.323,-1.404 0,-1.43 -0.323,-0.026 -0.403,0.27 -0.538,0.486 l -1.156,1.97 0.538,-1.377 c 0.134,-0.216 0.242,-0.864 0,-0.89 -0.242,-0.054 -0.51,0.135 -0.672,0.405 L 39.65,3.03 c 0,0 0.054,-0.675 0.188,-0.945 0.134,-0.297 0.188,-0.675 0.054,-0.756 -0.134,-0.081 -0.242,-0.108 -0.565,0.35 -0.323,0.432 -0.726,2.835 -0.753,3.16 -0.027,0.325 -0.188,0.675 -0.296,0.864 -0.108,0.189 -0.35,0.46 -0.484,0.486 -0.134,0.026 -0.108,0.324 -0.134,0.54 -0.026,0.216 0.215,1.296 0.242,1.485 0.027,0.189 -0.51,1.863 -0.672,2.24 -0.162,0.377 -0.78,1.566 -1.425,2.754 -0.645,1.188 -1.264,1.647 -2,2.808 -0.736,1.161 -1.156,2.51 -1.264,2.943 -0.108,0.405 -0.35,0.945 -0.78,1.566 l -1.264,2.025 c -0.134,0.297 -0.645,1 -0.807,1.08 -0.162,0.08 -0.62,0.35 -1.83,1.134 -1.21,0.784 -1.667,2.862 -1.83,3.105 -0.163,0.243 -0.242,0.35 -0.35,0.405 -0.108,0.055 -0.807,0.756 -0.94,0.756 -0.133,0 -0.296,-0.108 -0.35,-0.216 -0.054,-0.108 0.403,-0.594 0.592,-0.945 0.189,-0.351 0.108,-1.296 0,-1.458 -0.108,-0.19 -0.484,-0.648 -0.484,-0.73 0,-0.082 -0.027,-0.19 -0.08,-0.27 -0.053,-0.08 -0.27,-0.27 -0.296,-0.405 -0.054,-0.135 -0.08,-0.27 -0.027,-0.378 0.053,-0.108 0.027,-0.243 -0.08,-0.35 -0.08,-0.08 -0.807,-0.135 -0.94,-0.243 l -0.968,-0.756 c -0.323,-0.216 -1.29,-0.297 -1.56,-0.297 -0.27,0 -1.64,0.08 -2.555,1.026 -0.915,0.946 -1.694,1.836 -1.318,3.5 0.377,1.7 1.963,2.187 2.286,2.295 0.323,0.135 0.457,0.297 0.807,0.8 0.35,0.503 0.108,1.998 0,2.214 -0.108,0.216 -0.62,0.756 -0.78,0.945 -0.16,0.189 -0.592,0.27 -1.183,0.756 -0.591,0.486 -1.372,2.24 -1.318,3.132 0.054,0.892 0.7,2.106 0.7,2.24 0,0.134 -0.377,2.08 -0.403,3.078 -0.026,0.998 0.215,3.078 0.215,3.078 l -0.807,0.675 -1.48,1.43 c 0,0 -0.565,-0.918 -0.995,-1.296 A 4.02,4.02 0 0 0 8.66,47.017 c -2.34,1.9 -1.4,4.752 -1.4,4.752 0,0 -0.7,0.8 -1.05,1.08 -0.35,0.28 -1.183,0.46 -1.533,0.486 -0.35,0.026 -0.94,0.243 -2.098,1.107 -1.158,0.864 -2.141,2.35 -2.141,4.024 0,1.674 1.156,1.998 1.9,1.97 0.753,0 3.416,-1.458 4.17,-1.944 0.78,-0.486 2.178,-0.567 2.555,-0.594 0.377,-0.027 1.694,-0.19 2.178,-0.486 0.484,-0.27 0.807,-1.188 0.888,-1.35 0.054,-0.162 0.134,-0.243 0.403,-0.35 0.27,-0.135 2.474,0.108 3.04,0.162 0.566,0.054 3.604,0.513 3.98,0.675 0.376,0.162 2.34,0.486 4.115,0.46 1.775,-0.026 3.523,-0.35 3.71,-0.432 a 0.5,0.5 0 0 1 0.592,0.108 c 0.188,0.19 1.156,2.106 1.2,2.403 0.08,0.297 1.022,2.754 1.48,3.186 0.457,0.405 -2.26,0.513 -2.824,0.567 -0.564,0.054 -3.093,0.135 -3.335,0.027 -0.215,-0.108 -0.807,-0.864 -0.86,-1.026 -0.08,-0.162 -0.35,-0.62 -0.807,-1 -0.457,-0.38 -1.022,-1.27 -1.506,-1.404 -0.484,-0.134 -1.83,1.7 -2.77,2.916 l -2.824,3.86 c -0.242,0.405 -1.29,2.43 -1.372,3.105 -0.082,0.675 0.565,1.08 1.05,1.16 0.485,0.08 0.914,-0.513 1.667,-1.242 0.753,-0.729 1.372,-0.918 1.533,-1.026 l 0.94,-0.62 0.78,-0.35 c 0,0 0.054,-0.027 0.215,-0.08 0.161,-0.053 0.834,-0.513 0.834,-0.513 0,0 0.054,0 0.215,0.054 0.161,0.054 1.4,0.73 1.48,0.756 0.08,0.026 0.054,0.027 0.242,0.08 0.215,0.054 0.215,0.027 0.403,0 0.188,-0.027 0.403,-1 0.403,-1.08 0,-0.08 0.403,-0.135 0.78,-0.135 l 1.883,0.054 c 0.27,-0.027 0.78,-0.27 0.995,-0.27 0.215,0 2.743,0.54 3.2,0.567 0.457,0.027 2.878,0.35 3.12,0.46 0.242,0.11 0.888,0.89 1.05,0.945 0.162,0.055 1.9,0.27 2.178,0.135 0.278,-0.135 1.667,-0.324 2.017,-0.243 0.35,0.081 1.29,1.053 1.425,1.026 0.134,-0.054 1.506,-1.053 1.587,-1.188 0.081,-0.135 0.35,-0.35 0.726,-1.35 0.376,-1 -0.108,-3.7 -0.35,-4.32 l -1.318,-3.78 c -0.16,-0.46 -0.753,-1.917 -1.076,-2.43 L 38.843,53.4 c -0.134,-0.19 -0.457,-1.053 -0.672,-1.404 -0.215,-0.351 -1.2,-1.404 -1.237,-1.566 -0.037,-0.162 -0.51,-0.945 -0.51,-0.945 0,0 -0.027,-0.8 -0.215,-1.27 -0.188,-0.47 -1.264,-1.566 -1.372,-1.81 -0.134,-0.243 -0.054,-1 -0.08,-1.323 -0.026,-0.323 -0.27,-0.54 -0.403,-0.675 -0.133,-0.135 -0.108,-0.46 -0.134,-0.73 -0.026,-0.27 -0.188,-3.294 -0.538,-4.4 L 32.23,34.579 c -0.565,-1.35 -1.022,-1.62 -1.05,-1.81 l -0.27,-2.025 c -0.134,-0.675 -0.08,-2.35 -0.054,-2.565 0.054,-0.108 0.62,-0.54 0.834,-0.837 z m -8.795,15.823 c -0.215,0.162 -0.888,0.702 -1.05,1.026 -0.16,0.297 0.134,1.134 0.242,1.296 0.108,0.135 0.027,1.16 0.027,1.7 0,0.54 0.27,1.026 0.403,1.188 0.133,0.162 0.134,1.08 0.108,1.35 0,0.27 -0.43,0.918 -0.43,0.918 0,0 -0.323,-0.162 -2.07,-0.19 -1.747,-0.028 -5.137,1.566 -5.137,1.566 l 3.335,-2.754 c 0.672,-0.73 1.345,-0.972 1.56,-1.35 0.215,-0.378 0.054,-1.62 0.188,-2.187 0.134,-0.567 0.35,-0.675 0.78,-1.647 0.43,-0.945 0.215,-3.5 0.215,-3.5 l 0.7,0.594 0.7,0.486 c 0.134,0.08 0.834,0.945 0.834,0.945 0,0 -0.188,0.405 -0.403,0.567 z"
         id="path1410" />
    </g>
  </g>
</svg>
